<svg xmlns="http://www.w3.org/2000/svg" xmlns:svg="http://www.w3.org/2000/svg" xmlns:xlink="http://www.w3.org/1999/xlink" id="Layer_1" width="304.72" height="284.269" data-name="Layer 1" version="1.1" viewBox="0 0 304.72 284.269"><path id="path10" d="m 232.71972,91.235777 c -0.74,-0.73 -1.48,-1.45 -2.23,-2.16 a 113,113 0 0 0 -155.33,0 c -0.75,0.71 -1.49,1.43 -2.23,2.16 a 113,113 0 0 0 0,159.789993 c 1.63,1.63 3.31,3.2 5,4.72 a 113,113 0 0 0 149.75,0 c 1.71,-1.52 3.39,-3.09 5,-4.72 a 113,113 0 0 0 0,-159.789993 z" class="cls-1" style="fill:#00abe7"/><path id="path22" d="m 125.85972,151.39577 c 7.69,-4.45 15.45,-8.91 23.14,-13.37 a 7.35,7.35 0 0 1 7.47,0 l 11.43,6.54 a 1,1 0 0 1 0,1.73 l -28,16.1 a 2.31,2.31 0 0 0 -1.15,2 v 13.51 a 2.2,2.2 0 0 0 1.15,1.94 l 11.77,6.76 a 2.09,2.09 0 0 0 2.23,0 l 48.29,-27.81 c 8.19,-4.74 8.19,-18.39 0,-23.14 l -43.41,-25 a 11.6,11.6 0 0 0 -12,0 l -43.4,25 a 11.87,11.87 0 0 0 -6,10.42 c 0,16.75 0.07,33.42 0,50.09 a 11.87,11.87 0 0 0 6,10.42 l 43.4,25.08 a 11.92,11.92 0 0 0 12,0 l 43.41,-25.08 a 11.73,11.73 0 0 0 6,-10.42 v -21.77 l -51.72,29.89 a 7.3,7.3 0 0 1 -7.47,0 l -23.07,-13.37 a 7.3,7.3 0 0 1 -3.74,-6.46 v -26.66 a 7.37,7.37 0 0 1 3.67,-6.4 z" class="cls-3" style="fill:#fff;fill-rule:evenodd"/><metadata id="metadata40"/><defs id="defs17"><style id="style2">.cls-1{fill:url(#New_Gradient_Swatch_2)}.cls-2{fill:url(#New_Gradient_Swatch_2-2)}.cls-3{fill:url(#New_Gradient_Swatch_2-3)}</style><linearGradient id="New_Gradient_Swatch_2" x1="-46.88" x2="236.37" y1="58.06" y2="257.97" gradientUnits="userSpaceOnUse"><stop id="stop4" offset="0" stop-color="#273498"/><stop id="stop6" offset=".53" stop-color="#0074c2"/><stop id="stop8" offset="1" stop-color="#00abe7"/></linearGradient><linearGradient id="New_Gradient_Swatch_2-2" x1="33.33" x2="316.58" y1="-55.58" y2="144.33" xlink:href="#New_Gradient_Swatch_2"/><linearGradient id="New_Gradient_Swatch_2-3" x1="-6.57" x2="276.68" y1=".96" y2="200.86" xlink:href="#New_Gradient_Swatch_2"/><linearGradient id="New_Gradient_Swatch_2-4" x1="2.06" x2="45.66" y1="-11.27" y2="19.5" xlink:href="#New_Gradient_Swatch_2"/><linearGradient id="New_Gradient_Swatch_2-5" x1="-75.22" x2="208.03" y1="98.22" y2="298.13" xlink:href="#New_Gradient_Swatch_2"/><linearGradient id="New_Gradient_Swatch_2-6" x1="62.09" x2="345.34" y1="-96.33" y2="103.57" xlink:href="#New_Gradient_Swatch_2"/><linearGradient id="New_Gradient_Swatch_2-7" x1="58.55" x2="341.8" y1="-91.32" y2="108.59" xlink:href="#New_Gradient_Swatch_2"/></defs><path id="path6" d="m 60.58972,249.68577 c -1.28,-1.48 -2.53,-3 -3.73,-4.52 -1.2,-1.52 -2.38,-3.1 -3.51,-4.69 -1.13,-1.59 -2.23,-3.22 -3.29,-4.87 a 121.38,121.38 0 0 1 -13.74,-29.46 q -0.88,-2.86 -1.64,-5.78 c -0.75,-2.93 -1.4,-5.89 -1.94,-8.9 a 122.87,122.87 0 0 1 -1.9,-21.59 c 0,-1 0,-2.1 0,-3.15 q 0.08,-3.14 0.32,-6.24 a 121.05,121.05 0 0 1 9.23,-38.09 c 1.15,-2.74 2.41,-5.43 3.75,-8.06 1.34,-2.63 2.79,-5.2 4.32,-7.71 q 1.53,-2.52 3.17,-4.99999 3.3,-4.870003 7,-9.400003 c 1.24,-1.5 2.52,-3 3.83,-4.42 v 0 H 0.66972024 V 254.46577 H 64.95972 l -0.44,-0.45 c -1.34,-1.41 -2.66,-2.87 -3.93,-4.33 z" class="cls-1" style="fill:#00abe7"/><path id="path8" d="m 304.97972,87.795777 h -61.89 v 0 c 1.31,1.44 2.59,2.92 3.84,4.42 2.48,3 4.83,6.15 7,9.400003 q 1.63,2.42999 3.17,4.99999 2.29,3.76 4.32,7.71 c 1.34,2.63 2.6,5.32 3.75,8.06 a 121.34,121.34 0 0 1 9.24,38.09 c 0.15,2.07 0.26,4.15 0.31,6.24 0,1 0,2.1 0,3.15 a 122.87,122.87 0 0 1 -1.9,21.59 c -0.54,3 -1.19,6 -1.94,8.9 q -0.75,2.91 -1.64,5.78 a 121.38,121.38 0 0 1 -13.74,29.48 c -1,1.65 -2.15,3.27 -3.28,4.87 -1.13,1.6 -2.31,3.16 -3.52,4.69 -1.21,1.53 -2.45,3 -3.73,4.52 -1.28,1.52 -2.59,2.92 -3.93,4.33 l -0.44,0.45 h 64.29 z" class="cls-1" style="fill:#00abe7"/><g id="g4763" transform="matrix(0.37397958,0,0,0.39393263,-70.738139,1.5576098)" style="display:inline"><ellipse id="path3808" cx="797.045" cy="196.054" rx="190.455" ry="183.554" style="display:inline;opacity:1;fill:#f22;fill-opacity:1;fill-rule:nonzero;stroke:#fff;stroke-width:32.908;stroke-linecap:round;stroke-linejoin:round;stroke-miterlimit:4.2;stroke-dasharray:none;stroke-opacity:1;paint-order:markers fill stroke"/><text id="text4758" x="717.656" y="280.964" style="font-style:normal;font-variant:normal;font-weight:700;font-stretch:normal;font-size:266.667px;line-height:1.25;font-family:Helvetica;-inkscape-font-specification:'Helvetica, Bold';font-variant-ligatures:normal;font-variant-caps:normal;font-variant-numeric:normal;font-feature-settings:normal;text-align:start;letter-spacing:0;word-spacing:0;writing-mode:lr-tb;text-anchor:start;fill:#000;fill-opacity:1;stroke:none" xml:space="preserve"><tspan style="font-style:normal;font-variant:normal;font-weight:700;font-stretch:normal;font-size:266.667px;font-family:Helvetica;-inkscape-font-specification:'Helvetica, Bold';font-variant-ligatures:normal;font-variant-caps:normal;font-variant-numeric:normal;font-feature-settings:normal;text-align:start;writing-mode:lr-tb;text-anchor:start;fill:#fff;fill-opacity:1" id="tspan4756" x="717.656" y="280.964">1</tspan></text></g><path id="path12" d="M 62.55972,89.075777 Z" class="cls-1" style="fill:#00abe7"/><path id="path14" d="m 60.58972,250.96577 c 1.27,1.47 2.59,2.92 3.93,4.33 -1.34,-1.41 -2.66,-2.86 -3.93,-4.33 z" class="cls-1" style="fill:#00abe7"/><path id="path16" d="M 243.11972,89.145777 Z" class="cls-1" style="fill:#00abe7"/><path id="path18" d="m 253.97972,102.92578 q 1.63,2.42999 3.17,4.94999 -1.48,-2.52 -3.17,-4.94999 z" class="cls-1" style="fill:#00abe7"/><circle id="circle20" cx="152.83" cy="171.136" r="88.5" class="cls-2" style="fill:none"/></svg>