<svg xmlns="http://www.w3.org/2000/svg" xmlns:svg="http://www.w3.org/2000/svg" id="svg839" width="32" height="32" version="1.1" viewBox="0 0 8.467 8.467"><defs id="defs833"><marker style="overflow:visible" id="TriangleOutS" orient="auto" refX="0" refY="0"><path transform="scale(0.2)" style="fill-rule:evenodd;stroke:#4183c4;stroke-width:1pt;stroke-opacity:1;fill:#4183c4;fill-opacity:1" id="path2069" d="M 5.77,0.0 L -2.88,5.0 L -2.88,-5.0 L 5.77,0.0 z"/></marker><marker style="overflow:visible" id="TriangleOutM" orient="auto" refX="0" refY="0"><path transform="scale(0.4)" style="fill-rule:evenodd;stroke:#000;stroke-width:1pt;stroke-opacity:1;fill:#000;fill-opacity:1" id="path2066" d="M 5.77,0.0 L -2.88,5.0 L -2.88,-5.0 L 5.77,0.0 z"/></marker><marker style="overflow:visible" id="Arrow1Send" orient="auto" refX="0" refY="0"><path transform="scale(0.2) rotate(180) translate(6,0)" style="fill-rule:evenodd;stroke:#000;stroke-width:1pt;stroke-opacity:1;fill:#000;fill-opacity:1" id="path1936" d="M 0.0,0.0 L 5.0,-5.0 L -12.5,0.0 L 5.0,5.0 L 0.0,0.0 z"/></marker><marker style="overflow:visible" id="marker2313" orient="auto" refX="0" refY="0"><path id="path2311" d="M 8.7185878,4.0337352 L -2.2072895,0.016013256 L 8.7185884,-4.0017078 C 6.9730900,-1.6296469 6.9831476,1.6157441 8.7185878,4.0337352 z" transform="scale(0.6) rotate(180) translate(0,0)" style="fill-rule:evenodd;stroke-width:.625;stroke-linejoin:round;stroke:#000;stroke-opacity:1;fill:#000;fill-opacity:1"/></marker><marker style="overflow:visible" id="marker2261" orient="auto" refX="0" refY="0"><path id="path2259" d="M 8.7185878,4.0337352 L -2.2072895,0.016013256 L 8.7185884,-4.0017078 C 6.9730900,-1.6296469 6.9831476,1.6157441 8.7185878,4.0337352 z" transform="scale(1.1) rotate(180) translate(1,0)" style="fill-rule:evenodd;stroke-width:.625;stroke-linejoin:round;stroke:#000;stroke-opacity:1;fill:#000;fill-opacity:1"/></marker><marker style="overflow:visible" id="Arrow2Mend" orient="auto" refX="0" refY="0"><path id="path1948" d="M 8.7185878,4.0337352 L -2.2072895,0.016013256 L 8.7185884,-4.0017078 C 6.9730900,-1.6296469 6.9831476,1.6157441 8.7185878,4.0337352 z" transform="scale(0.6) rotate(180) translate(0,0)" style="fill-rule:evenodd;stroke-width:.625;stroke-linejoin:round;stroke:#000;stroke-opacity:1;fill:#000;fill-opacity:1"/></marker><marker style="overflow:visible" id="marker2195" orient="auto" refX="0" refY="0"><path id="path2193" d="M 8.7185878,4.0337352 L -2.2072895,0.016013256 L 8.7185884,-4.0017078 C 6.9730900,-1.6296469 6.9831476,1.6157441 8.7185878,4.0337352 z" transform="scale(1.1) rotate(180) translate(1,0)" style="fill-rule:evenodd;stroke-width:.625;stroke-linejoin:round;stroke:#000;stroke-opacity:1;fill:#000;fill-opacity:1"/></marker><marker style="overflow:visible" id="Arrow2Lend" orient="auto" refX="0" refY="0"><path id="path1942" d="M 8.7185878,4.0337352 L -2.2072895,0.016013256 L 8.7185884,-4.0017078 C 6.9730900,-1.6296469 6.9831476,1.6157441 8.7185878,4.0337352 z" transform="scale(1.1) rotate(180) translate(1,0)" style="fill-rule:evenodd;stroke-width:.625;stroke-linejoin:round"/></marker></defs><metadata id="metadata836"/><g id="layer1"><g style="font-size:12.915px;line-height:1.25;font-family:Comfortaa;-inkscape-font-specification:Comfortaa;word-spacing:0;stroke-width:.322873" id="text1406" aria-label="₿" transform="matrix(1.151357,0,0,0.9101944,-0.22733185,-0.00165035)"><path id="path1498" style="display:none;stroke-width:.322873" d="M 2.2819437,6.8106019 V 6.2573449 H 2.829315 V 2.9289744 H 2.2819437 V 2.3757174 H 3.0824006 V 1.7047461 H 3.4384863 V 2.3757174 H 3.9034576 V 1.7047461 h 0.3560856 v 0.7003998 q 0.5061713,0.097114 0.7563141,0.3825713 0.2501428,0.2854571 0.2501428,0.7327713 0,0.3089999 -0.1383143,0.5503141 -0.1383142,0.2383714 -0.4061141,0.3649142 0.3737427,0.1324286 0.573857,0.4119999 0.2001142,0.2766285 0.2001142,0.6680284 0,0.5444285 -0.3119428,0.8710855 Q 4.8716573,6.7105448 4.2595432,6.7870591 V 7.6375446 H 3.9034576 V 6.8106019 H 3.4384863 V 7.6375446 H 3.0824006 V 6.8106019 Z m 1.1565426,-0.553257 h 0.264857 q 0.5032285,0 0.7092284,-0.067686 0.206,-0.070629 0.3178285,-0.2295428 0.1118286,-0.1618571 0.1118286,-0.4561427 0,-0.3619713 -0.2589714,-0.5444284 -0.2560285,-0.1854 -0.8063426,-0.1854 H 3.4384863 Z M 3.7945719,4.2238312 q 0.4119999,0 0.6238856,-0.1618571 0.2148285,-0.1648 0.2148285,-0.5061713 0,-0.3060571 -0.2177714,-0.4649713 Q 4.2006861,2.9289744 3.7886862,2.9289744 H 3.4384863 v 1.2948568 z"/></g><path id="rect1402" d="M 28.482422,8.4628906 V 3.5175781 H 3.5175781 V 28.482422 H 28.482422 v -4.720703" transform="scale(0.26458333)" style="fill:none;stroke:#4183c4;stroke-width:2;stroke-miterlimit:4;stroke-dasharray:none;stroke-opacity:1"/><path id="path2191" d="M 2.8307954,4.2859349 H 6.3134429" style="fill:none;stroke:#4183c4;stroke-width:1.48788;stroke-linecap:butt;stroke-linejoin:miter;stroke-miterlimit:3.1;stroke-dasharray:none;stroke-opacity:1;marker-end:url(#TriangleOutS)"/></g></svg>