<svg xmlns="http://www.w3.org/2000/svg" xmlns:xlink="http://www.w3.org/1999/xlink" id="Layer_1" data-name="Layer 1" viewBox="0 0 1011.83 342.34"><defs><style>.cls-1,.cls-3,.cls-5{fill:none}.cls-2{clip-path:url(#clip-path)}.cls-3{stroke:#d1d3d4}.cls-10,.cls-3,.cls-5,.cls-6,.cls-8{stroke-miterlimit:10}.cls-3,.cls-5{stroke-width:.5px}.cls-4{font-size:18px;font-family:Poppins-Light,Poppins;font-weight:300}.cls-10,.cls-4,.cls-6,.cls-8{fill:#f1f2f2}.cls-5{stroke:#6d6e71}.cls-10,.cls-6,.cls-8{stroke:#00abe7;stroke-width:2px}.cls-6{opacity:.6}.cls-7{fill:#fff}.cls-8{opacity:.61}.cls-9{fill-rule:evenodd;fill:url(#New_Gradient_Swatch_2)}</style><clipPath id="clip-path"><rect width="845.72" height="241.9" x="86.76" y="20.85" class="cls-1"/></clipPath><linearGradient id="New_Gradient_Swatch_2" x1="143.49" x2="238.19" y1="-11.39" y2="269.34" gradientUnits="userSpaceOnUse"><stop offset="0" stop-color="#273498"/><stop offset=".53" stop-color="#0074c2"/><stop offset="1" stop-color="#00abe7"/></linearGradient></defs><g class="cls-2"><rect width="889.09" height="900.99" x="43.39" y="-198.91" class="cls-3"/><line x1="43.39" x2="932.49" y1="328.5" y2="328.5" class="cls-3"/><line x1="43.39" x2="932.49" y1="306.53" y2="306.53" class="cls-3"/><line x1="43.39" x2="932.49" y1="284.55" y2="284.55" class="cls-3"/><line x1="43.39" x2="932.49" y1="262.58" y2="262.58" class="cls-3"/><line x1="43.39" x2="932.49" y1="240.6" y2="240.6" class="cls-3"/><line x1="43.39" x2="932.49" y1="218.63" y2="218.63" class="cls-3"/><line x1="43.39" x2="932.49" y1="196.65" y2="196.65" class="cls-3"/><line x1="43.39" x2="932.49" y1="174.67" y2="174.67" class="cls-3"/><line x1="43.39" x2="932.49" y1="152.7" y2="152.7" class="cls-3"/><line x1="43.39" x2="932.49" y1="130.72" y2="130.72" class="cls-3"/><line x1="43.39" x2="932.49" y1="108.75" y2="108.75" class="cls-3"/><line x1="43.39" x2="932.49" y1="86.77" y2="86.77" class="cls-3"/><line x1="43.39" x2="932.49" y1="64.8" y2="64.8" class="cls-3"/><line x1="43.39" x2="932.49" y1="42.82" y2="42.82" class="cls-3"/><line x1="43.39" x2="932.49" y1="20.85" y2="20.85" class="cls-3"/><line x1="910.8" x2="910.8" y1="-198.91" y2="702.08" class="cls-3"/><line x1="889.12" x2="889.12" y1="-198.91" y2="702.08" class="cls-3"/><line x1="867.43" x2="867.43" y1="-198.91" y2="702.08" class="cls-3"/><line x1="845.75" x2="845.75" y1="-198.91" y2="702.08" class="cls-3"/><line x1="824.06" x2="824.06" y1="-198.91" y2="702.08" class="cls-3"/><line x1="802.37" x2="802.37" y1="-198.91" y2="702.08" class="cls-3"/><line x1="780.69" x2="780.69" y1="-198.91" y2="702.08" class="cls-3"/><line x1="759" x2="759" y1="-198.91" y2="702.08" class="cls-3"/><line x1="737.32" x2="737.32" y1="-198.91" y2="702.08" class="cls-3"/><line x1="715.63" x2="715.63" y1="-198.91" y2="702.08" class="cls-3"/><line x1="693.95" x2="693.95" y1="-198.91" y2="702.08" class="cls-3"/><line x1="672.26" x2="672.26" y1="-198.91" y2="702.08" class="cls-3"/><line x1="650.58" x2="650.58" y1="-198.91" y2="702.08" class="cls-3"/><line x1="628.89" x2="628.89" y1="-198.91" y2="702.08" class="cls-3"/><line x1="607.21" x2="607.21" y1="-198.91" y2="702.08" class="cls-3"/><line x1="585.52" x2="585.52" y1="-198.91" y2="702.08" class="cls-3"/><line x1="563.84" x2="563.84" y1="-198.91" y2="702.08" class="cls-3"/><line x1="542.15" x2="542.15" y1="-198.91" y2="702.08" class="cls-3"/><line x1="520.47" x2="520.47" y1="-198.91" y2="702.08" class="cls-3"/><line x1="498.78" x2="498.78" y1="-198.91" y2="702.08" class="cls-3"/><line x1="477.1" x2="477.1" y1="-198.91" y2="702.08" class="cls-3"/><line x1="455.41" x2="455.41" y1="-198.91" y2="702.08" class="cls-3"/><line x1="433.73" x2="433.73" y1="-198.91" y2="702.08" class="cls-3"/><line x1="412.04" x2="412.04" y1="-198.91" y2="702.08" class="cls-3"/><line x1="390.36" x2="390.36" y1="-198.91" y2="702.08" class="cls-3"/><line x1="368.67" x2="368.67" y1="-198.91" y2="702.08" class="cls-3"/><line x1="346.99" x2="346.99" y1="-198.91" y2="702.08" class="cls-3"/><line x1="325.3" x2="325.3" y1="-198.91" y2="702.08" class="cls-3"/><line x1="303.62" x2="303.62" y1="-198.91" y2="702.08" class="cls-3"/><line x1="281.93" x2="281.93" y1="-198.91" y2="702.08" class="cls-3"/><line x1="260.25" x2="260.25" y1="-198.91" y2="702.08" class="cls-3"/><line x1="238.56" x2="238.56" y1="-198.91" y2="702.08" class="cls-3"/><line x1="216.88" x2="216.88" y1="-198.91" y2="702.08" class="cls-3"/><line x1="195.19" x2="195.19" y1="-198.91" y2="702.08" class="cls-3"/><line x1="173.5" x2="173.5" y1="-198.91" y2="702.08" class="cls-3"/><line x1="151.82" x2="151.82" y1="-198.91" y2="702.08" class="cls-3"/><line x1="130.13" x2="130.13" y1="-198.91" y2="702.08" class="cls-3"/><line x1="108.45" x2="108.45" y1="-198.91" y2="702.08" class="cls-3"/><line x1="86.76" x2="86.76" y1="-198.91" y2="702.08" class="cls-3"/><line x1="65.08" x2="65.08" y1="-198.91" y2="702.08" class="cls-3"/></g><text class="cls-4" transform="translate(966.28 38.07)">X</text><text class="cls-4" transform="translate(952.61 141.84)">5.5X</text><text class="cls-4" transform="translate(594.28 308.95)">25X</text><text class="cls-4" transform="translate(182.91 308.95)">10X</text><text class="cls-4" transform="translate(21.44 141.52)">11X</text><text class="cls-4" transform="translate(314.45 308.95)">2X</text><line x1="86.76" x2="86.76" y1="20.85" y2="333.91" class="cls-5"/><line x1="303.62" x2="303.62" y1="20.85" y2="333.91" class="cls-5"/><line x1="347.89" x2="347.89" y1="77.04" y2="333.91" class="cls-5"/><line x1="889.12" x2="889.12" y1="77.04" y2="333.91" class="cls-5"/><line x2="303.62" y1="20.85" y2="20.85" class="cls-5"/><line x1="347.49" x2="1011.83" y1="77.04" y2="77.04" class="cls-5"/><line x2="303.62" y1="262.83" y2="262.83" class="cls-5"/><line x1="347.49" x2="1011.83" y1="197.38" y2="197.38" class="cls-5"/><rect width="541.23" height="119.61" x="347.89" y="77.61" class="cls-6"/><path d="M438,160H372.68A20.29,20.29,0,0,0,381,172.68q6.59,4.65,16.37,4.65a33.08,33.08,0,0,0,11.95-2,28.79,28.79,0,0,0,9.71-6.34l13.32,14.45q-12.19,13.95-35.62,13.95-14.61,0-25.83-5.69a41.7,41.7,0,0,1-17.34-15.81,43.54,43.54,0,0,1-6.09-22.94,44.07,44.07,0,0,1,6-22.87A42.13,42.13,0,0,1,370,114.19a48.62,48.62,0,0,1,23.51-5.7A48.07,48.07,0,0,1,416.48,114a39.87,39.87,0,0,1,16.13,15.64q5.85,10.2,5.86,23.67Q438.47,153.74,438,160Zm-58.57-27.76a20.48,20.48,0,0,0-7.06,13.16h42.52a20.73,20.73,0,0,0-7.06-13.08,21.11,21.11,0,0,0-14.12-4.89A21.55,21.55,0,0,0,379.42,132.24Z" class="cls-7"/><path d="M487.65,190.57a55.77,55.77,0,0,1-21.83-20.7,57.09,57.09,0,0,1-7.94-29.93A57.05,57.05,0,0,1,465.82,110a55.77,55.77,0,0,1,21.83-20.7A69.66,69.66,0,0,1,545.25,87a53,53,0,0,1,19.82,14.77l-16.69,15.4Q537,104,520.14,104a37.54,37.54,0,0,0-18.61,4.57,32.55,32.55,0,0,0-12.76,12.76,40.12,40.12,0,0,0,0,37.23,32.53,32.53,0,0,0,12.76,12.75,37.44,37.44,0,0,0,18.61,4.57q16.85,0,28.24-13.31L565.07,178a52.12,52.12,0,0,1-19.9,14.93A66.09,66.09,0,0,1,518.7,198,64.55,64.55,0,0,1,487.65,190.57Z" class="cls-7"/><path d="M653.8,118q10.74,9.55,10.75,28.8V196.1H641.12V185.35q-7.07,12-26.31,12A40.74,40.74,0,0,1,597.56,194a25.76,25.76,0,0,1-11.16-9.31,24.29,24.29,0,0,1-3.85-13.48q0-12,9.07-18.93t28-6.9h19.89c0-5.46-1.65-9.65-5-12.6s-8.29-4.41-14.92-4.41a43.7,43.7,0,0,0-13.56,2.16,36.17,36.17,0,0,0-11.31,5.86l-9-17.48a54.2,54.2,0,0,1,16.93-7.71,76.16,76.16,0,0,1,20.3-2.73Q643,108.49,653.8,118Zm-21.34,59.53a16.2,16.2,0,0,0,7-8.74V160H622.35q-15.4,0-15.41,10.11a9,9,0,0,0,3.78,7.62q3.76,2.82,10.34,2.81A21.83,21.83,0,0,0,632.46,177.57Z" class="cls-7"/><path d="M703.22,194.74q-10.28-2.66-16.37-6.66l8.34-18a52.7,52.7,0,0,0,14,6,58.19,58.19,0,0,0,16.05,2.33q15.88,0,15.89-7.86c0-2.46-1.45-4.23-4.34-5.29a64.28,64.28,0,0,0-13.31-2.73,128.49,128.49,0,0,1-17.5-3.69,27.12,27.12,0,0,1-12-7.38q-5.06-5.31-5.06-15.09a23.62,23.62,0,0,1,4.74-14.52q4.73-6.33,13.8-9.87a59,59,0,0,1,21.42-3.53,84.46,84.46,0,0,1,18.21,2,51,51,0,0,1,15,5.54l-8.35,17.8a49.92,49.92,0,0,0-24.87-6.41q-8,0-12,2.25t-4,5.77c0,2.68,1.45,4.55,4.33,5.62a76.87,76.87,0,0,0,13.8,3,147,147,0,0,1,17.33,3.78,26,26,0,0,1,11.72,7.3q5,5.28,5,14.76a22.78,22.78,0,0,1-4.81,14.28q-4.81,6.26-14,9.71t-21.9,3.44A83.57,83.57,0,0,1,703.22,194.74Z" class="cls-7"/><path d="M866.8,118.12q9.87,9.63,9.87,28.56V196.1h-25V150.53q0-10.26-4.49-15.32t-13-5.05q-9.48,0-15.09,5.85t-5.61,17.41V196.1h-25V77h25v41.72a33.34,33.34,0,0,1,12-7.62,43.65,43.65,0,0,1,15.4-2.65Q856.93,108.49,866.8,118.12Z" class="cls-7"/><rect width="216.85" height="241.34" x="86.76" y="20.85" class="cls-8"/><path d="M143.18,103.62C158.07,95,173.1,86.37,188,77.74a14.21,14.21,0,0,1,14.47,0L224.59,90.4a2,2,0,0,1,0,3.34l-54.13,31.17a4.44,4.44,0,0,0-2.23,3.9V155a4.22,4.22,0,0,0,2.23,3.76l22.68,13.08a4,4,0,0,0,4.31,0L291,118c15.86-9.19,15.86-35.63,0-44.81l-84-48.43a22.5,22.5,0,0,0-23.24,0l-84,48.43A23,23,0,0,0,87.94,93.33c0,32.42.14,64.7,0,97a23,23,0,0,0,11.69,20.17l84,48.57a23.15,23.15,0,0,0,23.24,0l84-48.57a22.67,22.67,0,0,0,11.55-20.17V148.15L202.46,206A14.21,14.21,0,0,1,188,206l-44.67-25.88a14.18,14.18,0,0,1-7.24-12.53V116a14.27,14.27,0,0,1,7.1-12.39Z" class="cls-9"/><rect width="21.69" height="21.98" x="910.8" y="20.85" class="cls-10" transform="translate(953.48 -889.81) rotate(90)"/></svg>